<svg xmlns="http://www.w3.org/2000/svg" width="120" height="80"><rect width="120" height="80" fill="#fff" rx="2"/><rect x="6" y="5" width="45" height="3" rx="1" fill="#6366f1"/><circle cx="10" cy="16" r="2" fill="#6366f1"/><rect x="16" y="15" width="90" height="2" rx="1" fill="#9ca3af"/><rect x="16" y="19" width="70" height="2" rx="1" fill="#9ca3af" opacity=".5"/><circle cx="10" cy="27" r="2" fill="#6366f1"/><rect x="16" y="26" width="95" height="2" rx="1" fill="#9ca3af"/><rect x="16" y="30" width="75" height="2" rx="1" fill="#9ca3af" opacity=".5"/><circle cx="10" cy="38" r="2" fill="#6366f1"/><rect x="16" y="37" width="85" height="2" rx="1" fill="#9ca3af"/><rect x="16" y="41" width="65" height="2" rx="1" fill="#9ca3af" opacity=".5"/><circle cx="10" cy="49" r="2" fill="#6366f1"/><rect x="16" y="48" width="92" height="2" rx="1" fill="#9ca3af"/><rect x="16" y="52" width="72" height="2" rx="1" fill="#9ca3af" opacity=".5"/><circle cx="10" cy="60" r="2" fill="#6366f1"/><rect x="16" y="59" width="88" height="2" rx="1" fill="#9ca3af"/><rect x="16" y="63" width="68" height="2" rx="1" fill="#9ca3af" opacity=".5"/><circle cx="10" cy="71" r="2" fill="#6366f1"/><rect x="16" y="70" width="80" height="2" rx="1" fill="#9ca3af"/><rect x="16" y="74" width="60" height="2" rx="1" fill="#9ca3af" opacity=".5"/></svg>
