<svg xmlns="http://www.w3.org/2000/svg" width="120" height="80"><rect width="120" height="80" fill="#fff" rx="2"/><rect x="35" y="4" width="50" height="3" rx="1" fill="#6366f1"/><rect x="6" y="14" width="50" height="8" rx="2" fill="#e5e7eb"/><rect x="9" y="17" width="30" height="2" rx="1" fill="#9ca3af" opacity=".5"/><rect x="6" y="26" width="50" height="8" rx="2" fill="#e5e7eb"/><rect x="9" y="29" width="25" height="2" rx="1" fill="#9ca3af" opacity=".5"/><rect x="6" y="38" width="50" height="20" rx="2" fill="#e5e7eb"/><rect x="9" y="41" width="40" height="2" rx="1" fill="#9ca3af" opacity=".5"/><rect x="9" y="46" width="35" height="2" rx="1" fill="#9ca3af" opacity=".3"/><rect x="6" y="62" width="24" height="7" rx="2" fill="#6366f1" opacity=".7"/><rect x="11" y="65" width="14" height="2" rx="1" fill="#fff"/><rect x="64" y="14" width="50" height="55" rx="2" fill="#e5e7eb"/><rect x="74" y="34" width="30" height="3" rx="1" fill="#9ca3af" opacity=".4"/><circle cx="89" cy="42" r="3" fill="#6366f1" opacity=".5"/></svg>
