<svg xmlns="http://www.w3.org/2000/svg" width="120" height="80"><rect width="120" height="80" fill="#fff" rx="2"/><rect x="6" y="4" width="108" height="10" rx="2" fill="#e5e7eb"/><text x="14" y="12" font-size="5" font-weight="bold" fill="#6366f1">A</text><text x="26" y="12" font-size="5" font-weight="bold" fill="#9ca3af">B</text><text x="38" y="12" font-size="5" font-weight="bold" fill="#9ca3af">C</text><text x="50" y="12" font-size="5" font-weight="bold" fill="#9ca3af">D</text><text x="62" y="12" font-size="5" font-weight="bold" fill="#9ca3af">E</text><text x="74" y="12" font-size="5" font-weight="bold" fill="#9ca3af">F</text><text x="86" y="12" font-size="5" font-weight="bold" fill="#9ca3af">G</text><text x="98" y="12" font-size="5" font-weight="bold" fill="#9ca3af">H</text><rect x="6" y="20" width="40" height="3" rx="1" fill="#6366f1" opacity=".7"/><rect x="6" y="25" width="100" height="2" rx="1" fill="#9ca3af" opacity=".5"/><rect x="6" y="29" width="85" height="2" rx="1" fill="#9ca3af" opacity=".3"/><rect x="6" y="35" width="35" height="3" rx="1" fill="#6366f1" opacity=".7"/><rect x="6" y="40" width="95" height="2" rx="1" fill="#9ca3af" opacity=".5"/><rect x="6" y="44" width="80" height="2" rx="1" fill="#9ca3af" opacity=".3"/><rect x="6" y="50" width="45" height="3" rx="1" fill="#6366f1" opacity=".7"/><rect x="6" y="55" width="90" height="2" rx="1" fill="#9ca3af" opacity=".5"/><rect x="6" y="59" width="78" height="2" rx="1" fill="#9ca3af" opacity=".3"/><rect x="6" y="65" width="38" height="3" rx="1" fill="#6366f1" opacity=".7"/><rect x="6" y="70" width="98" height="2" rx="1" fill="#9ca3af" opacity=".5"/><rect x="6" y="74" width="82" height="2" rx="1" fill="#9ca3af" opacity=".3"/></svg>
