<svg xmlns="http://www.w3.org/2000/svg" width="120" height="80"><rect width="120" height="80" fill="#fff" rx="2"/><rect x="6" y="5" width="108" height="24" rx="2" fill="#6366f1" opacity=".3"/><rect x="30" y="12" width="60" height="3" rx="1" fill="#6366f1"/><rect x="40" y="18" width="40" height="2" rx="1" fill="#9ca3af"/><rect x="6" y="33" width="32" height="22" rx="2" fill="#e5e7eb"/><rect x="44" y="33" width="32" height="22" rx="2" fill="#e5e7eb"/><rect x="82" y="33" width="32" height="22" rx="2" fill="#e5e7eb"/><rect x="10" y="37" width="24" height="2" rx="1" fill="#9ca3af"/><rect x="10" y="42" width="20" height="2" rx="1" fill="#9ca3af" opacity=".5"/><rect x="48" y="37" width="24" height="2" rx="1" fill="#9ca3af"/><rect x="48" y="42" width="20" height="2" rx="1" fill="#9ca3af" opacity=".5"/><rect x="86" y="37" width="24" height="2" rx="1" fill="#9ca3af"/><rect x="86" y="42" width="20" height="2" rx="1" fill="#9ca3af" opacity=".5"/><rect x="6" y="60" width="24" height="14" rx="2" fill="#e5e7eb"/><rect x="34" y="60" width="24" height="14" rx="2" fill="#e5e7eb"/><rect x="62" y="60" width="24" height="14" rx="2" fill="#e5e7eb"/><rect x="90" y="60" width="24" height="14" rx="2" fill="#e5e7eb"/><rect x="12" y="64" width="12" height="3" rx="1" fill="#6366f1"/><rect x="40" y="64" width="12" height="3" rx="1" fill="#6366f1"/><rect x="68" y="64" width="12" height="3" rx="1" fill="#6366f1"/><rect x="96" y="64" width="12" height="3" rx="1" fill="#6366f1"/></svg>
