<svg xmlns="http://www.w3.org/2000/svg" width="120" height="80"><rect width="120" height="80" fill="#fff" rx="2"/><rect x="6" y="5" width="108" height="8" rx="2" fill="#6366f1" opacity=".2"/><rect x="10" y="7" width="50" height="4" rx="1" fill="#6366f1"/><rect x="6" y="18" width="100" height="2" rx="1" fill="#9ca3af"/><rect x="6" y="23" width="108" height="2" rx="1" fill="#9ca3af" opacity=".6"/><rect x="6" y="28" width="90" height="2" rx="1" fill="#9ca3af" opacity=".6"/><rect x="6" y="33" width="104" height="2" rx="1" fill="#9ca3af" opacity=".6"/><rect x="6" y="41" width="70" height="3" rx="1" fill="#9ca3af"/><rect x="6" y="47" width="108" height="2" rx="1" fill="#9ca3af" opacity=".6"/><rect x="6" y="52" width="95" height="2" rx="1" fill="#9ca3af" opacity=".6"/><rect x="6" y="57" width="108" height="2" rx="1" fill="#9ca3af" opacity=".6"/><rect x="6" y="62" width="80" height="2" rx="1" fill="#9ca3af" opacity=".6"/><rect x="6" y="70" width="60" height="3" rx="1" fill="#9ca3af"/><rect x="6" y="75" width="108" height="2" rx="1" fill="#9ca3af" opacity=".6"/></svg>
