<svg xmlns="http://www.w3.org/2000/svg" width="120" height="80"><rect width="120" height="80" fill="#fff" rx="2"/><rect x="6" y="5" width="40" height="3" rx="1" fill="#6366f1"/><rect x="6" y="13" width="50" height="26" rx="2" fill="#e5e7eb"/><rect x="11" y="17" width="10" height="10" rx="2" fill="#9ca3af" opacity=".5"/><rect x="25" y="18" width="26" height="2" rx="1" fill="#9ca3af"/><rect x="25" y="23" width="20" height="2" rx="1" fill="#9ca3af" opacity=".5"/><rect x="11" y="31" width="18" height="4" rx="2" fill="#6366f1" opacity=".5"/><rect x="64" y="13" width="50" height="26" rx="2" fill="#e5e7eb"/><rect x="69" y="17" width="10" height="10" rx="2" fill="#9ca3af" opacity=".5"/><rect x="83" y="18" width="26" height="2" rx="1" fill="#9ca3af"/><rect x="83" y="23" width="20" height="2" rx="1" fill="#9ca3af" opacity=".5"/><rect x="69" y="31" width="18" height="4" rx="2" fill="#6366f1" opacity=".5"/><rect x="6" y="45" width="50" height="26" rx="2" fill="#e5e7eb"/><rect x="11" y="49" width="10" height="10" rx="2" fill="#9ca3af" opacity=".5"/><rect x="25" y="50" width="26" height="2" rx="1" fill="#9ca3af"/><rect x="25" y="55" width="20" height="2" rx="1" fill="#9ca3af" opacity=".5"/><rect x="11" y="63" width="18" height="4" rx="2" fill="#6366f1" opacity=".5"/><rect x="64" y="45" width="50" height="26" rx="2" fill="#e5e7eb"/><rect x="69" y="49" width="10" height="10" rx="2" fill="#9ca3af" opacity=".5"/><rect x="83" y="50" width="26" height="2" rx="1" fill="#9ca3af"/><rect x="83" y="55" width="20" height="2" rx="1" fill="#9ca3af" opacity=".5"/><rect x="69" y="63" width="18" height="4" rx="2" fill="#6366f1" opacity=".5"/></svg>
