<svg xmlns="http://www.w3.org/2000/svg" width="120" height="80"><rect width="120" height="80" fill="#fff" rx="2"/><rect x="35" y="4" width="50" height="3" rx="1" fill="#6366f1"/><rect x="6" y="12" width="50" height="28" rx="2" fill="#e5e7eb"/><circle cx="31" cy="22" r="6" fill="#9ca3af"/><rect x="18" y="31" width="26" height="2" rx="1" fill="#9ca3af"/><rect x="21" y="35" width="20" height="2" rx="1" fill="#9ca3af" opacity=".5"/><rect x="64" y="12" width="50" height="28" rx="2" fill="#e5e7eb"/><circle cx="89" cy="22" r="6" fill="#9ca3af"/><rect x="76" y="31" width="26" height="2" rx="1" fill="#9ca3af"/><rect x="79" y="35" width="20" height="2" rx="1" fill="#9ca3af" opacity=".5"/><rect x="6" y="46" width="50" height="28" rx="2" fill="#e5e7eb"/><circle cx="31" cy="56" r="6" fill="#9ca3af"/><rect x="18" y="65" width="26" height="2" rx="1" fill="#9ca3af"/><rect x="21" y="69" width="20" height="2" rx="1" fill="#9ca3af" opacity=".5"/><rect x="64" y="46" width="50" height="28" rx="2" fill="#e5e7eb"/><circle cx="89" cy="56" r="6" fill="#9ca3af"/><rect x="76" y="65" width="26" height="2" rx="1" fill="#9ca3af"/><rect x="79" y="69" width="20" height="2" rx="1" fill="#9ca3af" opacity=".5"/></svg>
