<?xml version="1.0" encoding="utf-8"?>
<!-- Generator: Adobe Illustrator 24.0.0, SVG Export Plug-In . SVG Version: 6.00 Build 0)  -->
<svg version="1.1"  xmlns="http://www.w3.org/2000/svg" xmlns:xlink="http://www.w3.org/1999/xlink" x="0px" y="0px"
	 viewBox="0 0 120.1 116.8" role="img">
<style type="text/css">
	.rd_gradient_0{fill:url(#path2484_1_);}
	.rd_gradient_1{fill:url(#path2488_1_);}
	.rd_gradient_2{fill:url(#path4225_1_);}
	.rd_gradient_3{fill:url(#SVGID_1_);}
	.rd_gradient_4{fill:url(#SVGID_2_);}
	.rd_gradient_5{fill:#05AD4D;}
	.rd_gradient_6{fill:url(#SVGID_3_);}
	.rd_gradient_7{fill:url(#SVGID_4_);}
	.rd_gradient_8{fill:url(#SVGID_5_);}
</style>
<title>WFO Logo</title>
<g>

		<linearGradient id="path2484_1_" gradientUnits="userSpaceOnUse" x1="-922.8459" y1="1926.0157" x2="-877.3217" y2="1926.0157" gradientTransform="matrix(-0.9957 -9.237064e-02 -9.237064e-02 0.9957 -680.595 -1975.1752)">
		<stop  offset="2.000000e-02" style="stop-color:#C2671D"/>
		<stop  offset="9.000000e-02" style="stop-color:#D37A35"/>
		<stop  offset="0.11" style="stop-color:#D77E3A"/>
		<stop  offset="0.15" style="stop-color:#E7863A"/>
		<stop  offset="0.19" style="stop-color:#F28B3A"/>
		<stop  offset="0.24" style="stop-color:#F68D3A"/>
		<stop  offset="0.33" style="stop-color:#F68E3C"/>
		<stop  offset="0.37" style="stop-color:#F59143"/>
		<stop  offset="0.4" style="stop-color:#F49750"/>
		<stop  offset="0.42" style="stop-color:#F39F62"/>
		<stop  offset="0.43" style="stop-color:#F2A56E"/>
		<stop  offset="0.52" style="stop-color:#F49A56"/>
		<stop  offset="0.6" style="stop-color:#F68D3A"/>
		<stop  offset="0.8" style="stop-color:#ED8837"/>
		<stop  offset="0.82" style="stop-color:#EE8B3D"/>
		<stop  offset="0.85" style="stop-color:#EF944D"/>
		<stop  offset="0.89" style="stop-color:#F2A269"/>
		<stop  offset="0.89" style="stop-color:#F2A56E"/>
		<stop  offset="0.97" style="stop-color:#F9BD85"/>
		<stop  offset="1" style="stop-color:#FDCA92"/>
	</linearGradient>
	<path id="path2484" class="rd_gradient_0" d="M61.9,10c0.2,0-0.4-0.5-0.3-0.8S62.3,8,61.9,8s-11.4,1.7-12.3,2.3s-4.2,0.1-4.7-0.8
		s-0.4-5.4-0.8-6.2s-5.6-1.9-7.5-0.8S33.1,7.8,34,8.6s6.5,2.9,6.1,3.5c-1.4,1.2-3.1,2-4.9,2.2c-1.9,0-2,1-3.6-0.7
		c-1.6-1.7-2.9-4.9-5.8-4.1s-9.3,4.7-9.9,5.6c-0.6,0.9,1.7,5.9,3,6.3s3.1,0.7,6.3-1s5-2.4,4.7-1.2c-0.5,1.2-1.2,2.4-2.1,3.3
		c-0.9,0.8-5.7,2.7-7.4,7.1S18.6,47.8,20,47.9s4.1-3.5,5-4.9c1.1-3.1,2-6.4,2.7-9.6c0.2-2.2,1.1-6.2,1.7-6.8s1.8-1.4,1.7-0.8
		s0,7.9,1.5,8.8c1.5,0.9,3.2,2.7,3.8,2.3s2.2-3.7,2.3-7s-0.1-10.8,1.6-11.8s2.4-0.6,2-0.1s-1.5,4.3-0.5,5.3s3.7,2.4,4.3,2
		s1.3-4.8,1.6-5.6s-1.7-5.5,0.9-7.1S58.4,9.3,61.9,10z"/>

		<linearGradient id="path2488_1_" gradientUnits="userSpaceOnUse" x1="-1662.7347" y1="443.255" x2="-1613.2947" y2="443.255" gradientTransform="matrix(-0.12 -0.99 -0.99 0.12 251.9451 -1627.3645)">
		<stop  offset="0" style="stop-color:#3F622E"/>
		<stop  offset="4.000000e-02" style="stop-color:#557C3E"/>
		<stop  offset="5.000000e-02" style="stop-color:#5D8341"/>
		<stop  offset="0.1" style="stop-color:#7E9F4B"/>
		<stop  offset="0.14" style="stop-color:#96B352"/>
		<stop  offset="0.18" style="stop-color:#A4BF56"/>
		<stop  offset="0.21" style="stop-color:#A9C358"/>
		<stop  offset="0.34" style="stop-color:#C7C95E"/>
		<stop  offset="0.56" style="stop-color:#F9D467"/>
		<stop  offset="0.65" style="stop-color:#F9D56A"/>
		<stop  offset="0.73" style="stop-color:#F9D775"/>
		<stop  offset="0.8" style="stop-color:#FADB86"/>
		<stop  offset="0.87" style="stop-color:#FBE19F"/>
		<stop  offset="0.94" style="stop-color:#FCE9BF"/>
		<stop  offset="0.94" style="stop-color:#FCE9C0"/>
	</linearGradient>
	<path id="path2488" class="rd_gradient_1" d="M15.6,22c0.7-0.9,2.1,0.2,1.4,0.7c-1.2,1.9-2.5,3.4-3.7,5.4c-0.9,1.4-2.4,3.7-2.1,4.7
		c0.3,1,1,12.6,5,21.6c2.1,5,3.1,7.8,0,13.5s-6.8,6.3-12.6-2c-2.8-4.2-4.3-11.2-3.2-17.7c0.9-6.1,3.8-11.7,8.2-16
		c1.2-1.3,2.2-2.8,3-4.4C12.9,25.8,14.2,23.9,15.6,22z"/>

		<linearGradient id="path4225_1_" gradientUnits="userSpaceOnUse" x1="878.0649" y1="1085.0737" x2="902.0274" y2="1085.0737" gradientTransform="matrix(-0.38 0.93 0.93 0.38 -646.9755 -1147.7798)">
		<stop  offset="0" style="stop-color:#3F622E"/>
		<stop  offset="4.000000e-02" style="stop-color:#557C3E"/>
		<stop  offset="5.000000e-02" style="stop-color:#5D8341"/>
		<stop  offset="0.1" style="stop-color:#7E9F4B"/>
		<stop  offset="0.14" style="stop-color:#96B352"/>
		<stop  offset="0.18" style="stop-color:#A4BF56"/>
		<stop  offset="0.21" style="stop-color:#A9C358"/>
		<stop  offset="0.34" style="stop-color:#C7C95E"/>
		<stop  offset="0.56" style="stop-color:#F9D467"/>
		<stop  offset="0.65" style="stop-color:#F9D56A"/>
		<stop  offset="0.73" style="stop-color:#F9D775"/>
		<stop  offset="0.8" style="stop-color:#FADB86"/>
		<stop  offset="0.87" style="stop-color:#FBE19F"/>
		<stop  offset="0.94" style="stop-color:#FCE9BF"/>
		<stop  offset="0.94" style="stop-color:#FCE9C0"/>
	</linearGradient>
	<path id="path4225" class="rd_gradient_2" d="M3.5,68.5C2.9,73.2,3.2,79.6,11,91c11,13.7,16.6,12.3,19,13.6c5.2,1.2,11-3.6,10-3.7
		c3.9-0.3,7.7-1.2,11.3-2.6c0.1,0,2.2-3.4,1.2-2.8c-1.3,0.8-2.6,1.4-4,2c-2.9,1.2-7.6,1.3-7.5,1c-2.6-2.4-13.1-2.4-21.5-7.7
		S5.6,76.1,3.5,68.5z"/>

		<linearGradient id="SVGID_1_" gradientUnits="userSpaceOnUse" x1="475.9102" y1="1729.3555" x2="559.2599" y2="1729.3555" gradientTransform="matrix(-0.84 0.54 0.54 0.84 -427.1077 -1643.0167)">
		<stop  offset="0" style="stop-color:#3F622E"/>
		<stop  offset="4.000000e-02" style="stop-color:#557C3E"/>
		<stop  offset="5.000000e-02" style="stop-color:#5D8341"/>
		<stop  offset="0.1" style="stop-color:#7E9F4B"/>
		<stop  offset="0.14" style="stop-color:#96B352"/>
		<stop  offset="0.18" style="stop-color:#A4BF56"/>
		<stop  offset="0.21" style="stop-color:#A9C358"/>
		<stop  offset="0.34" style="stop-color:#C7C95E"/>
		<stop  offset="0.56" style="stop-color:#F9D467"/>
		<stop  offset="0.65" style="stop-color:#F9D56A"/>
		<stop  offset="0.73" style="stop-color:#F9D775"/>
		<stop  offset="0.8" style="stop-color:#FADB86"/>
		<stop  offset="0.87" style="stop-color:#FBE19F"/>
		<stop  offset="0.94" style="stop-color:#FCE9BF"/>
		<stop  offset="0.94" style="stop-color:#FCE9C0"/>
	</linearGradient>
	<path class="rd_gradient_3" d="M48,116.5c11.4-0.4,48.6-23.8,47.4-45.3C93.2,90,59,116.8,35.5,110.8c3.5-3.6,17.5-13.4,22.8-8.1
		c-1.7-7,10.4-11.2,15.1-16.9c1.9,17.1,1.8-14.8,10.2-8.5c1.6-11,9.3-20.7,8.7-32.1c8.4,11.3,8.6,30,9.1,43.1c-2.7,3-4-0.9-6.1-1.2
		c4.8,2.8,4.1,10.5-1.3,16.6c-4.3,2.4-7.1-3-11.4-1.2c2.4,3.7,6.4,0,8.6,4.9c-9.4,7.6-17.3,8.3-24.5,5.6C74,120,54,115,48,116.5z"/>

		<linearGradient id="SVGID_2_" gradientUnits="userSpaceOnUse" x1="-1543.2111" y1="362.8759" x2="-1475.8513" y2="362.8759" gradientTransform="matrix(0.14 -0.96 0.73 0.27 49.376 -1485.9758)">
		<stop  offset="2.000000e-02" style="stop-color:#C2671D"/>
		<stop  offset="9.000000e-02" style="stop-color:#D37A35"/>
		<stop  offset="0.11" style="stop-color:#D77E3A"/>
		<stop  offset="0.15" style="stop-color:#E7863A"/>
		<stop  offset="0.19" style="stop-color:#F28B3A"/>
		<stop  offset="0.24" style="stop-color:#F68D3A"/>
		<stop  offset="0.33" style="stop-color:#F68E3C"/>
		<stop  offset="0.37" style="stop-color:#F59143"/>
		<stop  offset="0.4" style="stop-color:#F49750"/>
		<stop  offset="0.42" style="stop-color:#F39F62"/>
		<stop  offset="0.43" style="stop-color:#F2A56E"/>
		<stop  offset="0.52" style="stop-color:#F49A56"/>
		<stop  offset="0.6" style="stop-color:#F68D3A"/>
		<stop  offset="0.8" style="stop-color:#ED8837"/>
		<stop  offset="0.82" style="stop-color:#EE8B3D"/>
		<stop  offset="0.85" style="stop-color:#EF944D"/>
		<stop  offset="0.89" style="stop-color:#F2A269"/>
		<stop  offset="0.89" style="stop-color:#F2A56E"/>
		<stop  offset="0.97" style="stop-color:#F9BD85"/>
		<stop  offset="1" style="stop-color:#FDCA92"/>
	</linearGradient>
	<path class="rd_gradient_4" d="M111.3,80.7c6.2-18.6-7.1-47.8-20.9-56c13.4,20.6,19.1,57.2,13.4,72.6c21.8-15.9,23.3-56.8-4.5-69.6
		C109.3,37.7,119.9,66.7,111.3,80.7z"/>
	<path id="path307" class="rd_gradient_5" d="M79.7,5.5L76,8.6c4.7,8.7-13.4,16.6-21.3,18.7C55.8,20.6,59.2,9.7,74.5,8l4-3.3L79.7,5.5z"/>
	<path id="path313" class="rd_gradient_5" d="M86.9,8.7l-1.8,3.6c3.9,10-7.3,18.9-11.4,20.7c-0.4-8.4,0.5-16.3,10.2-21l2.3-4.1L86.9,8.7z"/>
	<path class="rd_gradient_5" d="M52.1,6.3C73.6-0.9,103,8.9,111.2,31c0.7,1.7,5.5,3.5,5.4,3.1c-9.5-25.2-44-40.2-69.3-31.7
		C46.4,2.7,50.6,6.8,52.1,6.3z"/>

		<linearGradient id="SVGID_3_" gradientUnits="userSpaceOnUse" x1="-841.6925" y1="-585.006" x2="-806.4625" y2="-585.006" gradientTransform="matrix(0.81 -0.58 -0.58 -0.81 369.0161 -872.6542)">
		<stop  offset="2.000000e-02" style="stop-color:#C2671D"/>
		<stop  offset="9.000000e-02" style="stop-color:#D37A35"/>
		<stop  offset="0.11" style="stop-color:#D77E3A"/>
		<stop  offset="0.15" style="stop-color:#E7863A"/>
		<stop  offset="0.19" style="stop-color:#F28B3A"/>
		<stop  offset="0.24" style="stop-color:#F68D3A"/>
		<stop  offset="0.33" style="stop-color:#F68E3C"/>
		<stop  offset="0.37" style="stop-color:#F59143"/>
		<stop  offset="0.4" style="stop-color:#F49750"/>
		<stop  offset="0.42" style="stop-color:#F39F62"/>
		<stop  offset="0.43" style="stop-color:#F2A56E"/>
		<stop  offset="0.52" style="stop-color:#F49A56"/>
		<stop  offset="0.6" style="stop-color:#F68D3A"/>
		<stop  offset="0.8" style="stop-color:#ED8837"/>
		<stop  offset="0.82" style="stop-color:#EE8B3D"/>
		<stop  offset="0.85" style="stop-color:#EF944D"/>
		<stop  offset="0.89" style="stop-color:#F2A269"/>
		<stop  offset="0.89" style="stop-color:#F2A56E"/>
		<stop  offset="0.97" style="stop-color:#F9BD85"/>
		<stop  offset="1" style="stop-color:#FDCA92"/>
	</linearGradient>
	<path class="rd_gradient_6" d="M30.3,81.6c-0.9,0-5,2.2-7.8,1.1s0.2-3.7,2.3-4.7c-1.4-1.8-4.5,1-5.9-1.3c-1.8-3.9,1.2-7.9,6-6.2
		c4,6.9,13.6,13.3,25.2,13.2c-10.5-1.2-21.8-8.3-25.8-15.5c3.7-2.6,5.5-3.9,9-1.9c0.4,2.1,0.9,2.5-1,4.6c1.9-0.3,3.2-2.3,5.3-1
		c0.6,1.3,0.7,2.5-1,4.2c3.3,0.2,4.9-4.1,8.6-2.6c-0.1,1.7-0.5,4.9-2.5,5.8c3.2-0.8,5.3-3.4,8.3-4.7c2.2,0.4,0.1,4-0.9,5.5
		c2.3-2.1,4.9-3.8,7.7-5.1c1.8,0.3,2.4,4.4-0.4,6.7c0.1-2,2.2-1.3,5.8-0.5c-0.7,4.8-4.1,6.6-6.9,5.5c-3.2,1.5,3.8,4.7-1,7.2
		c-8.6,2-7.7-3-10.4-4.3c-1.7,2.6,0.2,5.3-6.3,7c-6.2-2.7-1.6-5.3-1.4-8.5c-3.6,0.5-3.1,3.2-8.3,2.7C24.8,85.3,27.8,84.5,30.3,81.6z
		"/>

		<linearGradient id="SVGID_4_" gradientUnits="userSpaceOnUse" x1="-791.5865" y1="-176.8416" x2="-752.7565" y2="-176.8416" gradientTransform="matrix(0.76 -0.64 -0.64 -0.76 548.1226 -573.3331)">
		<stop  offset="0" style="stop-color:#AD123C"/>
		<stop  offset="2.000000e-02" style="stop-color:#C11841"/>
		<stop  offset="5.000000e-02" style="stop-color:#CF1C44"/>
		<stop  offset="7.000000e-02" style="stop-color:#D71E46"/>
		<stop  offset="0.12" style="stop-color:#DA1F47"/>
		<stop  offset="0.15" style="stop-color:#DC2D48"/>
		<stop  offset="0.22" style="stop-color:#E0454A"/>
		<stop  offset="0.28" style="stop-color:#E2544B"/>
		<stop  offset="0.33" style="stop-color:#E3594B"/>
		<stop  offset="0.53" style="stop-color:#F1A479"/>
		<stop  offset="0.64" style="stop-color:#F7C3A3"/>
		<stop  offset="0.75" style="stop-color:#FCDBC5"/>
		<stop  offset="0.8" style="stop-color:#FEE4D2"/>
		<stop  offset="0.81" style="stop-color:#FCE3CF"/>
		<stop  offset="0.84" style="stop-color:#F3DEC4"/>
		<stop  offset="0.88" style="stop-color:#EEDBBD"/>
		<stop  offset="0.99" style="stop-color:#EDDABB"/>
	</linearGradient>
	<path class="rd_gradient_7" d="M82.3,39.5c-1.6,15.7-9.1,16-14.2,35.3C61,69.1,61.4,60.4,67.4,51s10.8-10,13.9-20.3c5.6,9.1,8.7,13.3,6,24.2
		s-8.9,15.7-14.6,20.7c0.6-9.9,3.1-13.4,5.7-18.3S83.4,46.9,82.3,39.5z"/>

		<linearGradient id="SVGID_5_" gradientUnits="userSpaceOnUse" x1="-597.4284" y1="-492.3591" x2="-562.1018" y2="-492.3591" gradientTransform="matrix(0.8581 -0.5135 -0.5135 -0.8581 292.7529 -669.1176)">
		<stop  offset="0" style="stop-color:#AD123C"/>
		<stop  offset="2.000000e-02" style="stop-color:#C11841"/>
		<stop  offset="5.000000e-02" style="stop-color:#CF1C44"/>
		<stop  offset="7.000000e-02" style="stop-color:#D71E46"/>
		<stop  offset="0.12" style="stop-color:#DA1F47"/>
		<stop  offset="0.15" style="stop-color:#DC2D48"/>
		<stop  offset="0.22" style="stop-color:#E0454A"/>
		<stop  offset="0.28" style="stop-color:#E2544B"/>
		<stop  offset="0.33" style="stop-color:#E3594B"/>
		<stop  offset="0.53" style="stop-color:#F1A479"/>
		<stop  offset="0.64" style="stop-color:#F7C3A3"/>
		<stop  offset="0.75" style="stop-color:#FCDBC5"/>
		<stop  offset="0.8" style="stop-color:#FEE4D2"/>
		<stop  offset="0.81" style="stop-color:#FCE3CF"/>
		<stop  offset="0.84" style="stop-color:#F3DEC4"/>
		<stop  offset="0.88" style="stop-color:#EEDBBD"/>
		<stop  offset="0.99" style="stop-color:#EDDABB"/>
	</linearGradient>
	<path class="rd_gradient_8" d="M48.7,33.6c2.8,5.2,1.3,9.3,0.6,13.6c4.8-2,3.3-7.5,6.9-8.5s5.5,3.1,8.2,5.2c-2,2.8-9.8,6.8-13.6,6.9
		c1.7,4.1,8.8,0.1,11,3.5s-2.2,6.9-3.9,10.5C53.5,64.3,49,58.4,47,53c-3.4,3.2,1.1,9.5-2.2,12.1c-3.3,2.6-6.5-0.4-9.9-1.7
		c-1.2-5.8,5.6-9.6,9.2-13.1c-3.3-1.9-8.3,2.6-12.2,2.9c-0.2-0.6-0.6-0.8-1-0.7c-4.9-11.6,9-12,14.5-5.5c0.2-4.2-4-5.2-6.3-8.3
		C39.3,34.8,45.8,34.2,48.7,33.6z"/>
</g>
</svg>
